<svg id="Icons" height="48" viewBox="0 0 60 60" width="48" xmlns="http://www.w3.org/2000/svg"><path d="m55 37.3v1.71s-.01 0-.03.02a2.832 2.832 0 0 1 -.33.22c-.08.04-.17.09-.27.14s-.23.1-.36.16q-.42.165-1.05.36c-1.81.53-5.12 1.09-10.96 1.09-14.39 0-18.42-4.66-27-7.27a43.408 43.408 0 0 0 -13-1.73 12.133 12.133 0 0 1 -1-5c0-5.74 2.75-8.46 2.98-18.35a1.994 1.994 0 0 1 1.34-1.83l19.29-5.71a2 2 0 0 1 2.19.61 1.926 1.926 0 0 1 .46 1.08s.2 1.62.4 3.27c.13 1.14.27 2.29.34 2.93.08.71.19 1.43.34 2.13a24.129 24.129 0 0 0 1.68 5.07 27.2 27.2 0 0 0 5.19 7.58c.29.3.59.6.9.88a25.929 25.929 0 0 0 4.6 3.49q.42.255.84.48a22.811 22.811 0 0 0 8.19 2.71 6 6 0 0 1 5.26 5.96z" fill="#f5f5f5"/><path d="m49.74 31.34a22.811 22.811 0 0 1 -8.19-2.71q-.42-.225-.84-.48a25.929 25.929 0 0 1 -4.6-3.49c-.31-.28-.61-.58-.9-.88a27.2 27.2 0 0 1 -5.19-7.58 24.129 24.129 0 0 1 -1.68-5.07c-.15-.7-.26-1.42-.34-2.13-.07-.64-.21-1.79-.34-2.93-.2-1.65-.4-3.27-.4-3.27a1.926 1.926 0 0 0 -.46-1.08 2 2 0 0 0 -2.19-.61l-1.12.332a1.949 1.949 0 0 1 .31.278 1.926 1.926 0 0 1 .46 1.08s.2 1.62.4 3.27c.13 1.14.27 2.29.34 2.93.08.71.19 1.43.34 2.13a24.129 24.129 0 0 0 1.68 5.07 27.2 27.2 0 0 0 5.19 7.58c.29.3.59.6.9.88a25.929 25.929 0 0 0 4.6 3.49q.42.255.84.48a22.811 22.811 0 0 0 8.19 2.71 6 6 0 0 1 5.26 5.96v1.71s-.01 0-.03.02a2.832 2.832 0 0 1 -.33.22c-.08.04-.17.09-.27.14s-.23.1-.36.16q-.42.165-1.05.36a37.076 37.076 0 0 1 -9.367 1.074c.458.01.926.016 1.407.016 5.84 0 9.15-.56 10.96-1.09q.63-.195 1.05-.36c.13-.06.25-.11.36-.16s.19-.1.27-.14a2.832 2.832 0 0 0 .33-.22c.02-.02.03-.02.03-.02v-1.71a6 6 0 0 0 -5.26-5.96z" fill="#cfd8dc"/><g fill="#9e9e9e"><path d="m41.55 28.63q-.42-.225-.84-.48a25.929 25.929 0 0 1 -4.6-3.49c-.31-.28-.61-.58-.9-.88a27.2 27.2 0 0 1 -5.19-7.58 24.129 24.129 0 0 1 -1.68-5.07c-.15-.7-.26-1.42-.34-2.13-.07-.64-.21-1.79-.34-2.93-.2-1.65-.4-3.27-.4-3.27a1.926 1.926 0 0 0 -.46-1.08l2.07-.61a2.007 2.007 0 0 1 2.65 1.69s.56 4.65.74 6.2a31.026 31.026 0 0 0 9.29 19.63z"/><path d="m41.55 28.63q-.42-.225-.84-.48a25.929 25.929 0 0 1 -4.6-3.49c-.31-.28-.61-.58-.9-.88a27.2 27.2 0 0 1 -5.19-7.58 24.129 24.129 0 0 1 -1.68-5.07c-.15-.7-.26-1.42-.34-2.13-.07-.64-.21-1.79-.34-2.93-.2-1.65-.4-3.27-.4-3.27a1.926 1.926 0 0 0 -.46-1.08l2.07-.61a2.007 2.007 0 0 1 2.65 1.69s.56 4.65.74 6.2a31.026 31.026 0 0 0 9.29 19.63z"/><path d="m15 33.73v5.27a2.006 2.006 0 0 1 -2 2h-9a2.006 2.006 0 0 1 -2-2v-7a43.408 43.408 0 0 1 13 1.73z"/></g><path d="m14.75 48.01a6.971 6.971 0 0 0 -5.75-3.01 6.9 6.9 0 0 0 -3.55.97 7 7 0 1 0 10.55 6.03 6.924 6.924 0 0 0 -1.25-3.99zm-5.75 5.99a2 2 0 1 1 2-2 2.006 2.006 0 0 1 -2 2z" fill="#e91e63"/><path d="m44.98 47.08a7 7 0 1 0 2.02 4.92 6.955 6.955 0 0 0 -2.02-4.92zm-4.98 6.92a2 2 0 1 1 2-2 2.006 2.006 0 0 1 -2 2z" fill="#e91e63"/><path d="m44.98 47.08a6.955 6.955 0 0 0 -4.98-2.08 7.027 7.027 0 0 0 -1.483.168 7 7 0 0 1 -.017 13.667 7 7 0 0 0 6.48-11.755z" fill="#ad1457"/><path d="m58.05 51.31-2.9 1.71a1.938 1.938 0 0 1 -2.77-.9l-2.24-5.16 4.86-2.96 3.59 4.45a1.941 1.941 0 0 1 -.54 2.86z" fill="#02a9f4"/><path d="m58.59 48.45-3.59-4.45-2.012 1.225 2.6 3.225a1.941 1.941 0 0 1 -.54 2.86l-2.3 1.357a1.929 1.929 0 0 0 2.4.353l2.9-1.71a1.941 1.941 0 0 0 .542-2.86z" fill="#0377bc"/><path d="m55 39.01v4.99l-4.86 2.96-.78-1.05a2.312 2.312 0 0 0 -1.83-.91 2.013 2.013 0 0 0 -1.6.8l-.95 1.28a7 7 0 0 0 -10.73.93l-1.65-2.21a2.013 2.013 0 0 0 -1.6-.8h-13a2.013 2.013 0 0 0 -1.6.8l-1.65 2.21a6.971 6.971 0 0 0 -5.75-3.01 6.9 6.9 0 0 0 -3.55.97l-.56-.38a1.981 1.981 0 0 1 -.89-1.66v-2.93h38c11 0 13-1.99 13-1.99z" fill="#3f51b5"/><path d="m52 40.156v3.844l-2.824 1.72a2.363 2.363 0 0 1 .184.19l.78 1.05 4.86-2.96v-4.99a6.943 6.943 0 0 1 -3 1.146z" fill="#283593"/><path d="m1 39a3 3 0 0 0 2 2.816v2.114a2.985 2.985 0 0 0 .782 2.019 8 8 0 1 0 12.175 2.115l1.243-1.659a1.019 1.019 0 0 1 .8-.405h13a1.016 1.016 0 0 1 .8.4l1.244 1.666a8 8 0 1 0 13.216-1.032l.466-.627a1.191 1.191 0 0 1 1.831.108l.716.956 2.191 5.046a2.943 2.943 0 0 0 4.2 1.369l2.9-1.717a2.936 2.936 0 0 0 .812-4.341l-3.376-4.181v-6.347a7.011 7.011 0 0 0 -6.132-6.946 21.783 21.783 0 0 1 -7.776-2.6 30.139 30.139 0 0 1 -8.839-18.869c-.18-1.549-.739-6.192-.739-6.192a3 3 0 0 0 -1.381-2.224 2.967 2.967 0 0 0 -2.545-.318l-1.54.454c-.059-.043-.107-.1-.169-.136a2.961 2.961 0 0 0 -2.552-.314l-19.337 5.717a3.007 3.007 0 0 0 -2.006 2.752 41.491 41.491 0 0 1 -1.784 11.363 24.417 24.417 0 0 0 -1.2 7.013 13.489 13.489 0 0 0 1 5.212zm15-3.894c1.991.69 3.774 1.489 5.59 2.306a61.9 61.9 0 0 0 6.418 2.588h-12.192a2.966 2.966 0 0 0 .184-1zm-2 3.894a1 1 0 0 1 -1 1h-9a1 1 0 0 1 -1-1v-5.986a41.959 41.959 0 0 1 11 1.464zm-5 19a6 6 0 1 1 6-6 6.006 6.006 0 0 1 -6 6zm31 0a6 6 0 1 1 6-6 6.006 6.006 0 0 1 -6 6zm7.528-14a3.034 3.034 0 0 0 -2.4 1.2l-.313.421a7.96 7.96 0 0 0 -10.515.779l-.9-1.2a3.03 3.03 0 0 0 -2.4-1.2h-13a3.03 3.03 0 0 0 -2.4 1.2l-.9 1.2a7.95 7.95 0 0 0 -9.185-1.593l-.079-.053a.985.985 0 0 1 -.436-.824v-1.93h37c6.713 0 10.212-.729 12-1.377v2.815l-3.6 2.2-.24-.321a3.3 3.3 0 0 0 -2.632-1.317zm10.455 5.813a.924.924 0 0 1 -.444.633l-2.9 1.715a.938.938 0 0 1 -.777.083.918.918 0 0 1 -.566-.521l-1.891-4.363 3.366-2.05 3.029 3.758a.918.918 0 0 1 .183.745zm-28.783-47.757a1 1 0 0 1 .867.1 1.022 1.022 0 0 1 .464.763s.561 4.647.74 6.19a32.352 32.352 0 0 0 4.359 13.576 24.561 24.561 0 0 1 -6.636-13.795c-.072-.65-.214-1.843-.353-3.01v-.007c-.194-1.616-.384-3.18-.384-3.18a2.994 2.994 0 0 0 -.074-.338zm-26.073 18.465a43.232 43.232 0 0 0 1.857-11.85.989.989 0 0 1 .62-.9l19.336-5.713a1 1 0 0 1 .868.1 1.011 1.011 0 0 1 .461.759s.13 1.072.284 2.355l-3.748.748a1 1 0 0 0 .195 1.98 1.009 1.009 0 0 0 .2-.019l3.6-.717c.088.743.167 1.416.215 1.847.046.413.127.819.194 1.228l-3.4.681a1 1 0 0 0 .191 1.98 1.019 1.019 0 0 0 .2-.019l3.412-.684a25.372 25.372 0 0 0 1 3.165l-2.8.558a1 1 0 0 0 .188 1.98 1.016 1.016 0 0 0 .2-.019l3.244-.645a27.319 27.319 0 0 0 1.588 2.776l-2.4.96a1 1 0 0 0 .368 1.928.987.987 0 0 0 .371-.072l2.829-1.128a28.3 28.3 0 0 0 2.361 2.776l-2.161 1.624a1 1 0 0 0 1.2 1.6l2.43-1.828a27.741 27.741 0 0 0 3.311 2.514l-1.2 2a1 1 0 1 0 1.714 1.03l1.206-2.009a24.094 24.094 0 0 0 8.557 2.829 5.009 5.009 0 0 1 4.382 4.964v1.15c-.912.45-3.953 1.55-12 1.55-9.785 0-14.548-2.143-19.59-4.412a42.952 42.952 0 0 0 -19.737-4.588 12.026 12.026 0 0 1 -.673-4 22.813 22.813 0 0 1 1.127-6.479z"/><path d="m9 49a3 3 0 1 0 3 3 3 3 0 0 0 -3-3zm0 4a1 1 0 1 1 1-1 1 1 0 0 1 -1 1z"/><path d="m40 49a3 3 0 1 0 3 3 3 3 0 0 0 -3-3zm0 4a1 1 0 1 1 1-1 1 1 0 0 1 -1 1z"/></svg>