<svg id="Capa_1" enable-background="new 0 0 512.018 512.018" height="48" viewBox="0 0 512.018 512.018" width="48" xmlns="http://www.w3.org/2000/svg"><g><path d="m188.509 52.643-60 67.433 60 67.434h30v-134.868z" fill="#ffe2a8"/><path d="m68.509 52.643v134.867h120v-45l-30-22.434 30-22.566v-44.868z" fill="#fff0d3"/><path d="m203.509 217.51-15 22.5 15 22.5h30v-45z" fill="#4f4f4f"/><path d="m113.509 217.51-15 22.5 15 22.5h90v-45z" fill="#696969"/><path d="m53.509 217.51h60v45h-60z" fill="#ffe2a8"/><path d="m173.509 82.51h-30v75h30c8.284 0 15-6.716 15-15v-45c0-8.284-6.716-15-15-15z" fill="#353535"/><path d="m158.509 142.51v-45c0-8.284-6.716-15-15-15h-30c-8.284 0-15 6.716-15 15v45c0 8.284 6.716 15 15 15h30c8.284 0 15-6.716 15-15z" fill="#4f4f4f"/><path d="m203.009 307.51 30.5 60h30v-45z" fill="#a45e43"/><path d="m38.509 307.51-15 15v45h210v-60z" fill="#c27749"/><path d="m233.509 292.51-15 15 15 15h30v-30z" fill="#ffa754"/><path d="m23.509 292.51h210v30h-210z" fill="#ffcb63"/><path d="m353.509 262.51v75c24.853 0 45-20.147 45-45z" fill="#c27749"/><path d="m368.509 292.51-15-30-45 30c0 24.853 20.147 45 45 45 8.284 0 15-20.147 15-45z" fill="#e18f4e"/><path d="m338.509 232.51 30 60h30v-30z" fill="#60312c"/><path d="m338.509 292.51h30v-30l-45-30z" fill="#fff"/><path d="m338.509 292.51h-30v-30l30-30z" fill="#85453d"/><path d="m378.509 172.51h-30l20 90h30v-70c0-11.046-8.954-20-20-20z" fill="#30b054"/><path d="m348.509 172.51h-20c-11.046 0-20 8.954-20 20v70h60v-70c0-11.046-8.954-20-20-20z" fill="#80bf63"/><path d="m398.509 40.413c.001-2.016-.386-4.066-1.206-6.045-2.703-6.527-9.275-10.275-15.958-9.696.579-6.682-3.17-13.254-9.696-15.958-6.526-2.703-13.824-.707-18.14 4.427-4.316-5.135-11.614-7.131-18.14-4.427-6.526 2.703-10.275 9.275-9.696 15.958-6.683-.579-13.254 3.17-15.958 9.696-.82 1.979-1.207 4.029-1.206 6.045.002 4.633 0 57.096 0 57.096h90c0 .001-.002-52.463 0-57.096z" fill="#85453d"/><path d="m353.509 52.51v100l45-45v-10c0-24.86-20.15-45-45-45z" fill="#ffb4a9"/><path d="m353.509 52.51c-24.86 0-45 20.14-45 45v10l60 45v-55c0-24.86-6.72-45-15-45z" fill="#ffd9d4"/><path d="m368.509 107.51-15 65c24.85 0 45-20.15 45-45v-20z" fill="#60312c"/><path d="m368.509 107.51v20c0 24.85-6.72 45-15 45-24.86 0-45-20.15-45-45v-20h30c2.45-5.87 8.24-10 15-10s12.55 4.13 15 10z" fill="#85453d"/><path d="m53.509 270.016h180c4.142 0 7.5-3.357 7.5-7.5v-45c0-4.143-3.358-7.5-7.5-7.5h-180c-4.142 0-7.5 3.357-7.5 7.5v45c0 4.143 3.358 7.5 7.5 7.5zm172.5-15h-105v-30h105zm-165-30h45v30h-45z"/><path d="m68.509 195.016h150c4.142 0 7.5-3.357 7.5-7.5v-135c0-4.143-3.358-7.5-7.5-7.5h-150c-4.142 0-7.5 3.357-7.5 7.5v135c0 4.143 3.358 7.5 7.5 7.5zm7.5-135h135v120h-135z"/><path d="m173.509 75.016h-60c-12.407 0-22.5 10.094-22.5 22.5v45c0 12.406 10.093 22.5 22.5 22.5h60c12.407 0 22.5-10.094 22.5-22.5v-45c0-12.406-10.093-22.5-22.5-22.5zm7.5 67.5c0 4.136-3.364 7.5-7.5 7.5h-60c-4.136 0-7.5-3.364-7.5-7.5v-45c0-4.136 3.364-7.5 7.5-7.5h60c4.136 0 7.5 3.364 7.5 7.5z"/><path d="m263.509 285.016h-240c-4.142 0-7.5 3.358-7.5 7.5v212c0 4.142 3.358 7.5 7.5 7.5s7.5-3.358 7.5-7.5v-129.5h225v129.5c0 4.142 3.358 7.5 7.5 7.5s7.5-3.358 7.5-7.5v-212c0-4.142-3.358-7.5-7.5-7.5zm-7.5 15v15h-225v-15zm-225 60v-30h225v30z"/><path d="m406.009 292.516v-92.786c50.271-3.842 90-45.976 90-97.214 0-4.143-3.358-7.5-7.5-7.5s-7.5 3.357-7.5 7.5c0 43.343-33.605 78.961-76.125 82.229-2.435-8.25-8.639-14.895-16.614-17.933 10.869-9.626 17.739-23.67 17.739-39.296 0 0-.002-82.46 0-87.093.001-3.067-.596-6.068-1.777-8.919-2.913-7.03-8.907-12.013-15.983-13.729-1.716-7.075-6.699-13.071-13.729-15.982-7.031-2.915-14.793-2.198-21.011 1.592-6.218-3.789-13.98-4.507-21.01-1.592-7.03 2.911-12.013 8.906-13.73 15.981-7.075 1.717-13.07 6.699-15.982 13.729-1.181 2.851-1.779 5.852-1.778 8.92.002 4.633 0 87.093 0 87.093 0 15.626 6.87 29.67 17.739 39.296-10.358 3.947-17.739 13.978-17.739 25.704v100c0 14.269 5.73 27.22 15 36.692v159.903l-24.872 8.29c-3.93 1.31-6.053 5.558-4.744 9.487 1.048 3.143 3.974 5.13 7.114 5.13.786 0 1.586-.125 2.373-.387l30-10c3.063-1.021 5.128-3.887 5.128-7.115v-154.576c6.824 3.251 14.452 5.076 22.5 5.076s15.676-1.825 22.5-5.076v154.576c0 3.229 2.066 6.095 5.128 7.115l30 10c.787.262 1.586.387 2.373.387 3.14 0 6.066-1.987 7.114-5.13 1.31-3.93-.814-8.178-4.744-9.487l-24.872-8.29v-159.903c9.272-9.472 15.002-22.423 15.002-36.692zm-90-7.5v-15h15v15zm30-15h15v15h-15zm30 0h15v15h-15zm-60-229.6c0-1.085.213-2.151.636-3.171 1.392-3.362 4.764-5.404 8.381-5.095 2.204.194 4.385-.603 5.951-2.168 1.566-1.566 2.36-3.745 2.169-5.951-.314-3.621 1.733-6.988 5.094-8.381 3.36-1.394 7.189-.457 9.529 2.324 1.425 1.695 3.526 2.674 5.741 2.674s4.316-.979 5.741-2.674c2.339-2.781 6.17-3.715 9.529-2.324 3.361 1.393 5.408 4.76 5.094 8.381-.191 2.206.603 4.385 2.168 5.95 1.565 1.566 3.737 2.365 5.95 2.169 3.619-.311 6.99 1.734 8.382 5.094.422 1.02.636 2.087.635 3.172-.001 1.755-.001 10.376-.001 20.407-9.537-9.744-22.82-15.807-37.499-15.807s-27.962 6.063-37.499 15.807c0-10.031 0-18.652-.001-20.407zm37.5 19.6c20.678 0 37.5 16.822 37.5 37.5v2.5h-18.129c-4.389-6.2-11.545-10-19.371-10s-14.982 3.8-19.371 10h-18.129v-2.5c0-20.677 16.822-37.5 37.5-37.5zm-37.5 67.5v-12.5h22.5c3.027 0 5.757-1.819 6.922-4.613 1.365-3.272 4.536-5.387 8.079-5.387s6.713 2.114 8.079 5.387c1.165 2.794 3.895 4.613 6.922 4.613h22.5v12.5c0 20.678-16.822 37.5-37.5 37.5s-37.502-16.822-37.502-37.5zm12.5 52.5h50c6.893 0 12.5 5.607 12.5 12.5v62.5h-75v-62.5c0-6.892 5.608-12.5 12.5-12.5zm-11.745 120h73.491c-3.484 17.096-18.635 30-36.745 30s-33.262-12.904-36.746-30z"/></g></svg>