<svg width="48" height="48" xmlns="http://www.w3.org/2000/svg" xml:space="preserve" version="1.1">

 <g>
  <title>Layer 1</title>
  <g stroke="null" id="svg_1">
   <path stroke="null" id="svg_2" fill="#324768" d="m33.85804,23.87137l6.83947,0c0.53196,0 0.96681,0.43063 0.96681,0.96681l0,4.97339c0,0.18999 -0.00422,0.10977 -0.00844,0.35464c-0.00422,0.19843 -0.00422,0.3082 0,0.32509c0.00844,0.02533 0.08444,0.14777 0.25754,0.40952l7.15612,11.00649l0.04222,0.05911c0.53196,0.85282 0.78105,1.71409 0.75994,2.48248c-0.01267,0.48552 -0.12244,0.93726 -0.33775,1.3299c-0.21954,0.40952 -0.5404,0.75572 -0.95837,1.01326c-0.51507,0.32086 -1.17791,0.50241 -1.9674,0.49818l-0.07177,0.00422l-16.92981,0c-0.35042,0 -0.40952,0 -0.46019,0c-1.18635,0.02111 -2.32204,0.04222 -3.41974,-0.92037c-0.62062,-0.54462 -0.97948,-1.27501 -0.97104,-2.14472c0.00422,-0.7135 0.26176,-1.49455 0.84438,-2.3136c2.34737,-3.67305 4.91851,-7.45165 7.13923,-11.17536c0.11399,-0.17732 0.15199,-0.21532 0.16043,-0.23643c0.00422,-0.02111 -0.00844,-0.04644 -0.00844,-0.1731l0,-0.25754l0.00422,-5.15916c-0.00422,-0.02955 -0.00422,-0.05488 -0.00422,-0.08444c0,-0.52774 0.43486,-0.95837 0.96681,-0.95837l0,0z" class="st4"/>
   <path stroke="null" id="svg_3" fill="#FFFFFF" clip-rule="evenodd" fill-rule="evenodd" d="m40.69751,24.83818l-6.83947,0l-0.00422,5.2436c0,0.74728 0.05911,0.62484 -0.34197,1.2539l-7.12234,11.14581c-0.96259,1.35101 -0.80638,2.47825 -0.01689,3.17064c0.9457,0.83594 2.07717,0.67973 3.24242,0.67973l16.92981,0c2.32204,0.05066 3.00599,-1.83653 1.75209,-3.85459l-7.12234,-10.94738c-0.55729,-0.85705 -0.47707,-0.68817 -0.47707,-1.71409l0,-4.97762l0,0z" class="st5"/>
   <path stroke="null" id="svg_4" fill="#8BBCDB" clip-rule="evenodd" fill-rule="evenodd" d="m28.68621,38.86755l-2.30938,3.61394c-0.96259,1.35101 -0.80638,2.47825 -0.01689,3.17064c0.9457,0.83594 2.07717,0.67973 3.24242,0.67973l16.92981,0c2.32204,0.05066 3.00599,-1.83653 1.75209,-3.85459l-2.34737,-3.60972l-17.25067,0l0,0z" class="st2"/>
   <path stroke="null" id="svg_5" fill="#262626" d="m31.83997,34.04192c-0.25754,0 -0.46441,-0.20687 -0.46441,-0.46441s0.20687,-0.46441 0.46441,-0.46441l1.82808,0c0.25754,0 0.46441,0.20687 0.46441,0.46441s-0.20687,0.46441 -0.46441,0.46441l-1.82808,0l0,0z" class="st0"/>
   <path stroke="null" id="svg_6" fill="#262626" d="m30.57762,36.06421c-0.25754,0 -0.46441,-0.20687 -0.46441,-0.46441s0.20687,-0.46441 0.46441,-0.46441l2.33893,0c0.25754,0 0.46441,0.20687 0.46441,0.46441s-0.20687,0.46441 -0.46441,0.46441l-2.33893,0l0,0z" class="st0"/>
   <path stroke="null" id="svg_7" fill="#324768" d="m40.38931,41.60756c0.56996,0 1.08503,0.2322 1.46078,0.60373c0.37153,0.37575 0.60373,0.89082 0.60373,1.46078s-0.2322,1.08503 -0.60373,1.46078s-0.89082,0.60373 -1.46078,0.60373c-0.56573,0 -1.08503,-0.2322 -1.45655,-0.60795l0,0c-0.37153,-0.37153 -0.60373,-0.89082 -0.60373,-1.46078s0.2322,-1.08503 0.60373,-1.46078c0.37153,-0.36731 0.8866,-0.59951 1.45655,-0.59951l0,0z" class="st4"/>
   <path stroke="null" id="svg_8" fill="#8BBCDB" clip-rule="evenodd" fill-rule="evenodd" d="m40.38931,42.22395c0.79794,0 1.44389,0.64595 1.44389,1.44389s-0.64595,1.44389 -1.44389,1.44389c-0.79794,0 -1.44389,-0.64595 -1.44389,-1.44389s0.64595,-1.44389 1.44389,-1.44389l0,0z" class="st2"/>
   <path stroke="null" id="svg_9" fill="#324768" d="m45.29938,41.58645c0.32509,0 0.6164,0.13088 0.82749,0.34197s0.34197,0.50663 0.34197,0.82749s-0.13088,0.6164 -0.34197,0.82749c-0.21109,0.21109 -0.50663,0.34197 -0.82749,0.34197s-0.6164,-0.13088 -0.82749,-0.34197c-0.21109,-0.21109 -0.34197,-0.50663 -0.34197,-0.82749s0.13088,-0.6164 0.34197,-0.82749c0.21109,-0.21109 0.50241,-0.34197 0.82749,-0.34197l0,0z" class="st4"/>
   <path stroke="null" id="svg_10" fill="#8BBCDB" clip-rule="evenodd" fill-rule="evenodd" d="m45.29938,42.20284c0.30398,0 0.55307,0.24909 0.55307,0.55307s-0.24909,0.55307 -0.55307,0.55307c-0.30398,0 -0.55307,-0.24909 -0.55307,-0.55307s0.24909,-0.55307 0.55307,-0.55307l0,0z" class="st2"/>
   <path stroke="null" id="svg_11" fill="#324768" d="m40.95082,36.36818c0.44752,0 0.85282,0.18154 1.14836,0.47707l0.038,0.04222c0.2702,0.29131 0.43908,0.67973 0.43908,1.10614c0,0.44752 -0.18154,0.85282 -0.47707,1.14413l0,0c-0.29553,0.29553 -0.70083,0.47707 -1.14836,0.47707c-0.44752,0 -0.85282,-0.18154 -1.14836,-0.47707c-0.29553,-0.29131 -0.47707,-0.70083 -0.47707,-1.14836s0.18154,-0.85282 0.47707,-1.14836s0.70083,-0.47285 1.14836,-0.47285l0,0z" class="st4"/>
   <path stroke="null" id="svg_12" fill="#8BBCDB" clip-rule="evenodd" fill-rule="evenodd" d="m40.95082,36.98458c0.55307,0 1.00481,0.44752 1.00481,1.00481s-0.44752,1.00481 -1.00481,1.00481s-1.00481,-0.44752 -1.00481,-1.00481s0.45174,-1.00481 1.00481,-1.00481l0,0z" class="st2"/>
   <path stroke="null" id="svg_13" fill="#324768" d="m36.87669,32.59803c0.31664,0 0.60373,0.13088 0.8106,0.33775l0.00422,0.00422c0.20687,0.20687 0.33775,0.49396 0.33775,0.8106c0,0.31664 -0.13088,0.60373 -0.33775,0.8106l-0.00422,0c-0.20687,0.20687 -0.49396,0.33775 -0.8106,0.33775s-0.60373,-0.13088 -0.8106,-0.33775l-0.00422,0c-0.20687,-0.20687 -0.33775,-0.49818 -0.33775,-0.8106s0.13088,-0.60373 0.33775,-0.8106l0.00422,-0.00422c0.20687,-0.20687 0.49396,-0.33775 0.8106,-0.33775l0,0z" class="st4"/>
   <path stroke="null" id="svg_14" fill="#8BBCDB" clip-rule="evenodd" fill-rule="evenodd" d="m36.87669,33.21865c0.29553,0 0.53196,0.24065 0.53196,0.53196s-0.24065,0.53196 -0.53196,0.53196s-0.53196,-0.24065 -0.53196,-0.53196s0.23643,-0.53196 0.53196,-0.53196l0,0z" class="st2"/>
   <path stroke="null" id="svg_15" fill="#324768" d="m36.77537,36.42729c0.35886,0 0.68395,0.14354 0.91615,0.37997l0.04222,0.04644c0.21109,0.2322 0.33775,0.53618 0.33775,0.87393c0,0.35886 -0.14354,0.68395 -0.37997,0.91615l-0.04644,0.04222c-0.2322,0.21109 -0.53618,0.33775 -0.86971,0.33775c-0.35464,0 -0.67973,-0.14777 -0.91615,-0.37997l0,0c-0.23643,-0.23643 -0.37997,-0.56151 -0.37997,-0.91615c0,-0.35464 0.14354,-0.67973 0.37997,-0.91615l0,0c0.2322,-0.23643 0.55729,-0.38419 0.91615,-0.38419l0,0z" class="st4"/>
   <path stroke="null" id="svg_16" fill="#8BBCDB" clip-rule="evenodd" fill-rule="evenodd" d="m36.77537,37.04791c0.37575,0 0.67973,0.30398 0.67973,0.67973s-0.30398,0.67973 -0.67973,0.67973s-0.67973,-0.30398 -0.67973,-0.67973s0.30398,-0.67973 0.67973,-0.67973l0,0z" class="st2"/>
   <path stroke="null" id="svg_17" fill="#324768" d="m36.30252,17.62718c0.44752,0 0.85282,0.18154 1.14413,0.47707l0.00422,0c0.29553,0.29553 0.47707,0.70083 0.47707,1.14836s-0.18154,0.85282 -0.47707,1.14836c-0.29553,0.29131 -0.70083,0.47707 -1.14836,0.47707c-0.44752,0 -0.85282,-0.18154 -1.14836,-0.47707c-0.29131,-0.29553 -0.47707,-0.70083 -0.47707,-1.14836s0.18154,-0.85282 0.47707,-1.14836l0.04222,-0.038c0.29131,-0.27442 0.67973,-0.43908 1.10614,-0.43908l0,0z" class="st4"/>
   <path stroke="null" id="svg_18" fill="#8BBCDB" clip-rule="evenodd" fill-rule="evenodd" d="m36.30252,18.24358c0.55307,0 1.00481,0.44752 1.00481,1.00481s-0.45174,1.00481 -1.00481,1.00481s-1.00481,-0.44752 -1.00481,-1.00481s0.45174,-1.00481 1.00481,-1.00481l0,0z" class="st2"/>
   <path stroke="null" id="svg_19" fill="#324768" d="m38.7681,15.09827c0.35886,0 0.68395,0.14354 0.91615,0.37997c0.23643,0.23643 0.37997,0.56151 0.37997,0.91615c0,0.35886 -0.14354,0.68395 -0.37997,0.92037s-0.56151,0.37997 -0.91615,0.37997c-0.35886,0 -0.68395,-0.14354 -0.91615,-0.37997s-0.37997,-0.56151 -0.37997,-0.92037c0,-0.35886 0.14354,-0.68395 0.37997,-0.91615c0.2322,-0.2322 0.55729,-0.37997 0.91615,-0.37997l0,0z" class="st4"/>
   <path stroke="null" id="svg_20" fill="#8BBCDB" clip-rule="evenodd" fill-rule="evenodd" d="m38.7681,15.71888c0.37575,0 0.67973,0.30398 0.67973,0.67973s-0.30398,0.67973 -0.67973,0.67973s-0.67973,-0.30398 -0.67973,-0.67973s0.30398,-0.67973 0.67973,-0.67973l0,0z" class="st2"/>
   <path stroke="null" id="svg_21" fill="#324768" d="m33.62583,21.55355l7.38832,0c0.58684,0 1.1188,0.24065 1.503,0.62484c0.38419,0.38419 0.62484,0.91615 0.62484,1.503c0,0.58684 -0.24065,1.1188 -0.62484,1.503c-0.02533,0.02533 -0.04644,0.04644 -0.07177,0.06755c-0.37997,0.3462 -0.88238,0.55729 -1.427,0.55729l-7.38832,0c-0.58262,0 -1.11458,-0.24065 -1.49877,-0.62484l0,0c-0.38419,-0.38419 -0.62484,-0.91615 -0.62484,-1.503c0,-0.58684 0.24065,-1.1188 0.62484,-1.503c0.37575,-0.38419 0.90771,-0.62484 1.49455,-0.62484l0,0z" class="st4"/>
   <path stroke="null" id="svg_22" fill="#FFFFFF" clip-rule="evenodd" fill-rule="evenodd" d="m33.62583,22.52458l7.38832,0c0.63751,0 1.1568,0.51929 1.1568,1.1568l0,0c0,0.63751 -0.51929,1.1568 -1.1568,1.1568l-7.38832,0c-0.63751,0 -1.1568,-0.51929 -1.1568,-1.1568l0,0c0,-0.63751 0.51929,-1.1568 1.1568,-1.1568l0,0z" class="st5"/>
   <path stroke="null" id="svg_23" fill="#324768" d="m17.93726,18.6911c-1.52833,0.13932 -2.90889,0.57418 -4.05302,1.2539c-1.09347,0.65017 -1.9674,1.52833 -2.54158,2.57958c-0.56996,1.05547 -0.84438,2.29671 -0.73883,3.67727c0.10555,1.3299 0.56151,2.79067 1.43967,4.35278c0.34197,-0.05066 0.6755,-0.08444 1.01748,-0.10977c1.62543,-0.0971 3.24664,0.15199 4.75808,0.70928c0.58684,0.21532 1.16102,0.47707 1.70987,0.78949l14.92863,0c0.29553,0 0.52774,0.23643 0.52774,0.52774l0,4.39922c0,0.29553 -0.23643,0.52774 -0.52774,0.52774l-9.91301,0c0.56573,1.24124 0.9457,2.6218 1.09347,4.12902l10.45342,0l0,0c0.13088,0 0.26176,0.04644 0.36308,0.14777l5.11272,4.86785c0.11821,0.0971 0.19421,0.24487 0.19421,0.40952c0,0.29553 -0.23643,0.52774 -0.52774,0.52774l-42.70871,0l0,-0.00422c-0.11821,0 -0.23643,-0.038 -0.33775,-0.11821c-0.22376,-0.18576 -0.25754,-0.51929 -0.07177,-0.74305l3.89681,-4.74963c0.00422,-1.43967 0.28709,-2.77801 0.80638,-4.01925c0.48974,-1.17791 1.1948,-2.27138 2.06873,-3.2973c-1.04703,-1.76053 -1.76897,-3.49573 -2.20383,-5.17605c-0.92882,-3.6055 -0.54462,-6.96191 0.7515,-9.83702c1.2919,-2.87089 3.49151,-5.25626 6.1893,-6.92391c1.3299,-0.82327 2.78645,-1.46922 4.31478,-1.91674l-0.33353,-0.66284c-0.00844,-0.01689 -0.02111,-0.02955 -0.02533,-0.05066c-0.12666,-0.26176 -0.01689,-0.5784 0.24909,-0.70928l0.64173,-0.30398l-1.53677,-3.06088l-0.92037,0.4813c-0.01689,0.01267 -0.03378,0.02111 -0.05066,0.02533c-0.26176,0.12666 -0.5784,0.02111 -0.70506,-0.24487l-1.29612,-2.6598l0,0c-0.12244,-0.25331 -0.02533,-0.56573 0.22798,-0.70083l5.21826,-2.74423c0.01267,-0.00844 0.02111,-0.01267 0.02955,-0.02111c0.25754,-0.13088 0.5784,-0.02533 0.70928,0.2322l1.35101,2.65135l0,0c0.13088,0.25754 0.02955,0.56996 -0.22798,0.70506l-0.69239,0.37153l1.66343,3.16642l0.74305,-0.35464l0,0c0.25331,-0.12244 0.56573,-0.02111 0.69661,0.2322l6.51017,12.44193l0.63328,-0.33775c0.25754,-0.1351 0.5784,-0.038 0.7135,0.21954l1.45233,2.76112l0,0l0.00422,0.00422c0.1351,0.25754 0.02955,0.5784 -0.22798,0.70928l-7.70918,3.98969l-0.01689,0.00844c-0.26176,0.12666 -0.5784,0.01689 -0.70506,-0.24909l-1.31301,-2.71468c-0.12666,-0.25331 -0.02533,-0.56996 0.22798,-0.70506l0.73461,-0.38841l-2.04762,-4.09524l0,0l0,0z" class="st4"/>
   <path stroke="null" id="svg_24" fill="#F86464" d="m25.24114,42.58704c-0.02111,0.00422 -0.04222,0.00844 -0.06333,0.00844c-0.04222,0.00422 -0.08444,0 -0.12244,-0.00844l-22.26629,0l-3.14531,3.8377l40.26423,0l-4.03191,-3.8377l-10.63496,0l0,0l0,0z" class="st1"/>
   <path stroke="null" id="svg_25" fill="#F86464" d="m5.98085,34.89474c-0.01689,0.02533 -0.02955,0.04644 -0.05066,0.06755l0,0c-0.91615,1.02592 -1.64654,2.11517 -2.13628,3.29308c-0.42641,1.0217 -0.6755,2.10673 -0.71772,3.27197l21.4979,0c-0.30398,-2.93 -1.57899,-5.32803 -3.37752,-7.05057c-1.08503,-1.03436 -2.36426,-1.82386 -3.7406,-2.33049c-1.37634,-0.50663 -2.84978,-0.73461 -4.32744,-0.64595c-2.52892,0.15199 -5.06628,1.22857 -7.14767,3.39441l0,0l0,0z" class="st1"/>
   <path stroke="null" id="svg_26" fill="#61C4F2" d="m21.10369,32.99911c0.28287,0.22376 0.55729,0.46019 0.81905,0.70928c0.79794,0.75572 1.49455,1.6381 2.07295,2.62602l9.9299,0l0,-3.33952l-12.8219,0l0,0.00422l0,0z" class="st3"/>
   <polygon stroke="null" id="svg_27" fill="#61C4F2" points="15.425233840942383,8.516327857971191 15.488563537597656,8.486774444580078 17.274425506591797,7.6001763343811035 15.653217315673828,4.518191337585449 14.462640762329102,5.109256744384766 13.871575355529785,5.417455673217773 15.425233840942383,8.516327857971191 15.425233840942383,8.516327857971191 " class="st3"/>
   <rect stroke="null" id="svg_28" height="0" width="0" y="26.83092" x="21.05724"/>
   <path stroke="null" id="svg_29" fill="#61C4F2" d="m20.91792,22.28816l0.35886,-0.18999l3.97703,-2.11939l-6.27374,-11.98174l-3.1622,1.50722l-0.39686,0.19843l0,0c-0.02533,0.01267 -0.05066,0.02533 -0.07599,0.02955l-0.56996,0.27442l6.14286,12.2815l0,0l0,0z" class="st3"/>
   <polygon stroke="null" id="svg_30" fill="#61C4F2" points="27.80805778503418,22.157278060913086 26.849685668945312,20.341861724853516 21.243009567260742,23.314077377319336 20.934810638427734,23.47450828552246 20.934810638427734,23.47450828552246 20.922143936157227,23.482952117919922 20.905256271362305,23.491395950317383 20.191755294799805,23.871368408203125 21.048799514770508,25.644563674926758 27.80805778503418,22.157278060913086 27.80805778503418,22.157278060913086 " class="st3"/>
   <path stroke="null" id="svg_31" fill="#61C4F2" d="m14.4162,11.6532c-1.503,0.41797 -2.93422,1.04703 -4.23878,1.85341c-2.52469,1.55788 -4.57654,3.78704 -5.77978,6.4595c-1.20324,2.67246 -1.55788,5.78822 -0.69239,9.14463c0.38841,1.49877 1.0217,3.05243 1.93363,4.63564c1.60432,-1.53255 3.4324,-2.49936 5.31959,-2.97644c-0.8486,-1.58743 -1.30034,-3.09887 -1.41011,-4.4921c-0.12244,-1.59166 0.19421,-3.03132 0.86127,-4.25989c0.66284,-1.22435 1.67609,-2.23761 2.93422,-2.9891c1.16947,-0.69661 2.56269,-1.16102 4.0868,-1.35101l-3.01443,-6.02465l0,0l0,0z" class="st3"/>
   <path stroke="null" id="svg_32" fill="#61C4F2" d="m16.3245,2.95187l-0.87393,-1.70987l-4.31478,2.27138l0.83594,1.70987l0.80638,-0.42219c0.04222,-0.04222 0.08866,-0.07599 0.14354,-0.10555l1.13569,-0.56573l2.26716,-1.17791l0,0l0,0z" class="st3"/>
  </g>
 </g>
</svg>