<svg id="Layer_3" enable-background="new 0 0 64 64" height="48" viewBox="0 0 64 64" width="48" xmlns="http://www.w3.org/2000/svg"><g><path d="m60 42h-56c-1.105 0-2-.895-2-2v-36c0-1.105.895-2 2-2h56c1.105 0 2 .895 2 2v36c0 1.105-.895 2-2 2z" fill="#b9bcc5"/><path d="m2 4v24.754c4.446 2.066 9.558 3.246 15 3.246 17.121 0 31-11.641 31-26 0-1.36-.126-2.696-.366-4h-43.634c-1.105 0-2 .895-2 2z" fill="#c7c9d1"/><path d="m6 6h52v32h-52z" fill="#78c3f9"/><path d="m6 30.301c3.42 1.091 7.123 1.699 11 1.699 17.121 0 31-11.641 31-26h-42z" fill="#93cffa"/><path d="m38 58v-5c0-1.657 1.343-3 3-3h16c1.657 0 3 1.343 3 3v5z" fill="#855b57"/><path d="m38 54h6v4h-6z" fill="#cda198"/><path d="m54 54h6v4h-6z" fill="#cda198"/><path d="m36 58h26v4h-26z" fill="#c0897e"/><path d="m43 46h12v4h-12z" fill="#c0897e"/><circle cx="49" cy="32" fill="#c0897e" r="4"/><path d="m49 36c-.732 0-1.41-.211-2-.555v10.555h4v-10.555c-.59.344-1.268.555-2 .555z" fill="#855b57"/><path d="m28 42v2c0 1.105.895 2 2 2h4c1.105 0 2-.895 2-2v-2z" fill="#8b909f"/><path d="m23 29h18v4h-18z" fill="#c0897e"/><g fill="#fff"><circle cx="16" cy="12" r="2"/><circle cx="20" cy="12" r="2"/><circle cx="24" cy="12" r="2"/><circle cx="28" cy="12" r="2"/><circle cx="32" cy="12" r="2"/><circle cx="36" cy="12" r="2"/><circle cx="40" cy="12" r="2"/><circle cx="44" cy="12" r="2"/><circle cx="48" cy="12" r="2"/><circle cx="18" cy="16" r="2"/><circle cx="22" cy="16" r="2"/><circle cx="26" cy="16" r="2"/><circle cx="30" cy="16" r="2"/><circle cx="34" cy="16" r="2"/><circle cx="38" cy="16" r="2"/><circle cx="42" cy="16" r="2"/><circle cx="46" cy="16" r="2"/><circle cx="32" cy="27" r="2"/></g><path d="m4 58v-5c0-1.657 1.343-3 3-3h16c1.657 0 3 1.343 3 3v5z" fill="#855b57"/><path d="m4 54h6v4h-6z" fill="#cda198"/><path d="m20 54h6v4h-6z" fill="#cda198"/><path d="m2 58h26v4h-26z" fill="#c0897e"/><path d="m9 46h12v4h-12z" fill="#c0897e"/><circle cx="15" cy="32" fill="#c0897e" r="4"/><path d="m15 36c-.732 0-1.41-.211-2-.555v10.555h4v-10.555c-.59.344-1.268.555-2 .555z" fill="#855b57"/><g><path d="m60 43c1.654 0 3-1.346 3-3v-36c0-1.654-1.346-3-3-3h-56c-1.654 0-3 1.346-3 3v36c0 1.654 1.346 3 3 3h8v2h-3c-.552 0-1 .447-1 1v3h-1c-2.206 0-4 1.794-4 4v4h-1c-.552 0-1 .447-1 1v4c0 .553.448 1 1 1h26c.552 0 1-.447 1-1v-1.101c1.226-.25 2.278-.96 3-1.93.722.97 1.774 1.68 3 1.93v1.101c0 .553.448 1 1 1h26c.552 0 1-.447 1-1v-4c0-.553-.448-1-1-1h-1v-4c0-2.206-1.794-4-4-4h-1v-3c0-.553-.448-1-1-1h-3v-2zm-56-2c-.551 0-1-.448-1-1v-36c0-.551.449-1 1-1h56c.551 0 1 .449 1 1v36c0 .552-.449 1-1 1h-8v-2h6c.552 0 1-.447 1-1v-32c0-.552-.448-1-1-1h-52c-.552 0-1 .448-1 1v32c0 .553.448 1 1 1h6v2zm26 4c-.551 0-1-.448-1-1v-1h6v1c0 .552-.449 1-1 1zm-12-4v-2h28v2zm-6-9c0-1.654 1.346-3 3-3s3 1.346 3 3-1.346 3-3 3-3-1.346-3-3zm34 0c0-1.654 1.346-3 3-3s3 1.346 3 3-1.346 3-3 3-3-1.346-3-3zm8 0c0-2.757-2.243-5-5-5s-5 2.243-5 5c0 1.627.793 3.061 2 3.974v1.026h-28v-1.026c1.207-.914 2-2.348 2-3.974 0-2.757-2.243-5-5-5s-5 2.243-5 5c0 1.627.793 3.061 2 3.974v1.026h-5v-30h50v30h-5v-1.026c1.207-.913 2-2.347 2-3.974zm-40 4.899c.323.066.658.101 1 .101s.677-.035 1-.101v8.101h-2zm-4 10.101h10v2h-10zm-3 4h16c1.103 0 2 .897 2 2h-5c-.552 0-1 .447-1 1v3h-8v-3c0-.553-.448-1-1-1h-5c0-1.102.897-2 2-2zm14 6v-2h4v2zm-16-2h4v2h-4zm22 6h-24v-2h24zm2-2.184v-.816c0-.553-.448-1-1-1h-1v-4c0-2.206-1.794-4-4-4h-1v-3c0-.553-.448-1-1-1h-3v-2h9v1c0 1.654 1.346 3 3 3h1v9c0 1.302-.839 2.402-2 2.816zm6-.816v.816c-1.161-.414-2-1.514-2-2.816v-9h1c1.654 0 3-1.346 3-3v-1h9v2h-3c-.552 0-1 .447-1 1v3h-1c-2.206 0-4 1.794-4 4v4h-1c-.552 0-1 .447-1 1zm8-1h-4v-2h4zm18 4h-24v-2h24zm-6-4v-2h4v2zm4-4h-5c-.552 0-1 .447-1 1v3h-8v-3c0-.553-.448-1-1-1h-5c0-1.103.897-2 2-2h16c1.103 0 2 .898 2 2zm-5-4h-10v-2h10zm-6-4v-8.101c.323.066.658.101 1 .101s.677-.035 1-.101v8.101z"/><path d="m41 28h-6.184c.112-.314.184-.648.184-1 0-1.654-1.346-3-3-3s-3 1.346-3 3c0 .352.072.686.184 1h-6.184c-.552 0-1 .448-1 1v4c0 .553.448 1 1 1h18c.552 0 1-.447 1-1v-4c0-.552-.448-1-1-1zm-10-1c0-.551.449-1 1-1s1 .449 1 1-.449 1-1 1-1-.449-1-1zm9 5h-16v-2h16z"/><path d="m48 9c-.771 0-1.468.301-2 .78-.532-.479-1.229-.78-2-.78s-1.468.301-2 .78c-.532-.479-1.229-.78-2-.78s-1.468.301-2 .78c-.532-.479-1.229-.78-2-.78s-1.468.301-2 .78c-.532-.479-1.229-.78-2-.78s-1.468.301-2 .78c-.532-.479-1.229-.78-2-.78s-1.468.301-2 .78c-.532-.479-1.229-.78-2-.78s-1.468.301-2 .78c-.532-.479-1.229-.78-2-.78s-1.468.301-2 .78c-.532-.479-1.229-.78-2-.78-1.654 0-3 1.346-3 3 0 1.383.945 2.539 2.22 2.884-.139.346-.22.721-.22 1.116 0 1.654 1.346 3 3 3 .771 0 1.468-.301 2-.78.532.48 1.229.78 2 .78s1.468-.301 2-.78c.532.48 1.229.78 2 .78s1.468-.301 2-.78c.532.48 1.229.78 2 .78s1.468-.301 2-.78c.532.48 1.229.78 2 .78s1.468-.301 2-.78c.532.48 1.229.78 2 .78s1.468-.301 2-.78c.532.48 1.229.78 2 .78s1.468-.301 2-.78c.532.48 1.229.78 2 .78 1.654 0 3-1.346 3-3 0-.395-.081-.77-.22-1.116 1.275-.345 2.22-1.501 2.22-2.884 0-1.654-1.346-3-3-3zm-4 2c.551 0 1 .449 1 1s-.449 1-1 1-1-.449-1-1 .449-1 1-1zm-4 0c.551 0 1 .449 1 1s-.449 1-1 1-1-.449-1-1 .449-1 1-1zm-4 0c.551 0 1 .449 1 1s-.449 1-1 1-1-.449-1-1 .449-1 1-1zm-4 0c.551 0 1 .449 1 1s-.449 1-1 1-1-.449-1-1 .449-1 1-1zm-4 0c.551 0 1 .449 1 1s-.449 1-1 1-1-.449-1-1 .449-1 1-1zm-4 0c.551 0 1 .449 1 1s-.449 1-1 1-1-.449-1-1 .449-1 1-1zm-4 0c.551 0 1 .449 1 1s-.449 1-1 1-1-.449-1-1 .449-1 1-1zm-4 0c.551 0 1 .449 1 1s-.449 1-1 1-1-.449-1-1 .449-1 1-1zm2 6c-.551 0-1-.449-1-1s.449-1 1-1 1 .449 1 1-.449 1-1 1zm4 0c-.551 0-1-.449-1-1s.449-1 1-1 1 .449 1 1-.449 1-1 1zm4 0c-.551 0-1-.449-1-1s.449-1 1-1 1 .449 1 1-.449 1-1 1zm4 0c-.551 0-1-.449-1-1s.449-1 1-1 1 .449 1 1-.449 1-1 1zm4 0c-.551 0-1-.449-1-1s.449-1 1-1 1 .449 1 1-.449 1-1 1zm4 0c-.551 0-1-.449-1-1s.449-1 1-1 1 .449 1 1-.449 1-1 1zm4 0c-.551 0-1-.449-1-1s.449-1 1-1 1 .449 1 1-.449 1-1 1zm4 0c-.551 0-1-.449-1-1s.449-1 1-1 1 .449 1 1-.449 1-1 1zm2-4c-.551 0-1-.449-1-1s.449-1 1-1 1 .449 1 1-.449 1-1 1z"/></g></g></svg>