<?xml version="1.0" encoding="UTF-8"?>
<svg xmlns="http://www.w3.org/2000/svg" xmlns:xlink="http://www.w3.org/1999/xlink" width="48px" height="48px" viewBox="0 0 48 48" version="1.1">
<g id="surface1">
<path style=" stroke:none;fill-rule:nonzero;fill:rgb(89.803922%,93.72549%,93.72549%);fill-opacity:1;" d="M 42 24 C 42 33.527344 34.277344 41.25 24.75 41.25 C 15.222656 41.25 7.5 33.527344 7.5 24 C 7.5 14.472656 15.222656 6.75 24.75 6.75 C 34.277344 6.75 42 14.472656 42 24 Z M 42 24 "/>
<path style="fill:none;stroke-width:2;stroke-linecap:round;stroke-linejoin:round;stroke:rgb(29.803922%,14.117647%,11.372549%);stroke-opacity:1;stroke-miterlimit:4;" d="M 7 5 L 7 7 " transform="matrix(0.75,0,0,0.75,0,0)"/>
<path style="fill:none;stroke-width:2;stroke-linecap:round;stroke-linejoin:round;stroke:rgb(29.803922%,14.117647%,11.372549%);stroke-opacity:1;stroke-miterlimit:4;" d="M 7 11 L 7 13 " transform="matrix(0.75,0,0,0.75,0,0)"/>
<path style="fill:none;stroke-width:2;stroke-linecap:round;stroke-linejoin:round;stroke:rgb(29.803922%,14.117647%,11.372549%);stroke-opacity:1;stroke-miterlimit:4;" d="M 3 9 L 5 9 " transform="matrix(0.75,0,0,0.75,0,0)"/>
<path style="fill:none;stroke-width:2;stroke-linecap:round;stroke-linejoin:round;stroke:rgb(29.803922%,14.117647%,11.372549%);stroke-opacity:1;stroke-miterlimit:4;" d="M 9 9 L 11 9 " transform="matrix(0.75,0,0,0.75,0,0)"/>
<path style="fill:none;stroke-width:2;stroke-linecap:round;stroke-linejoin:round;stroke:rgb(29.803922%,14.117647%,11.372549%);stroke-opacity:1;stroke-miterlimit:4;" d="M 48 10.5 C 48 11.880208 46.880208 13 45.5 13 C 44.119792 13 43 11.880208 43 10.5 C 43 9.119792 44.119792 8 45.5 8 C 46.880208 8 48 9.119792 48 10.5 Z M 48 10.5 " transform="matrix(0.75,0,0,0.75,0,0)"/>
<path style=" stroke:none;fill-rule:nonzero;fill:rgb(29.803922%,14.117647%,11.372549%);fill-opacity:1;" d="M 15.488281 10.574219 C 15.488281 11.019531 15.128906 11.375 14.6875 11.375 C 14.242188 11.375 13.882812 11.019531 13.882812 10.574219 C 13.882812 10.132812 14.242188 9.773438 14.6875 9.773438 C 15.128906 9.773438 15.488281 10.132812 15.488281 10.574219 Z M 15.488281 10.574219 "/>
<path style=" stroke:none;fill-rule:nonzero;fill:rgb(29.803922%,14.117647%,11.372549%);fill-opacity:1;" d="M 45.488281 12.074219 C 45.488281 12.519531 45.128906 12.875 44.6875 12.875 C 44.242188 12.875 43.882812 12.519531 43.882812 12.074219 C 43.882812 11.632812 44.242188 11.273438 44.6875 11.273438 C 45.128906 11.273438 45.488281 11.632812 45.488281 12.074219 Z M 45.488281 12.074219 "/>
<path style="fill-rule:nonzero;fill:rgb(74.901961%,49.411765%,40.784314%);fill-opacity:1;stroke-width:2;stroke-linecap:round;stroke-linejoin:round;stroke:rgb(29.803922%,14.117647%,11.372549%);stroke-opacity:1;stroke-miterlimit:4;" d="M 23.302083 57.697917 C 21.151042 55.552083 21.151042 52.067708 23.302083 49.921875 L 45.927083 27.302083 C 48.072917 25.151042 51.557292 25.151042 53.703125 27.302083 C 55.848958 29.447917 55.848958 32.932292 53.703125 35.078125 L 31.072917 57.697917 C 28.927083 59.84375 25.447917 59.84375 23.302083 57.697917 Z M 23.302083 57.697917 " transform="matrix(0.75,0,0,0.75,0,0)"/>
<path style="fill:none;stroke-width:2;stroke-linecap:round;stroke-linejoin:round;stroke:rgb(29.803922%,14.117647%,11.372549%);stroke-opacity:1;stroke-miterlimit:4;" d="M 14 48 L 14 59 " transform="matrix(0.75,0,0,0.75,0,0)"/>
<path style="fill:none;stroke-width:2;stroke-linecap:round;stroke-linejoin:round;stroke:rgb(29.803922%,14.117647%,11.372549%);stroke-opacity:1;stroke-miterlimit:4;" d="M 10 60 L 18 60 " transform="matrix(0.75,0,0,0.75,0,0)"/>
<path style="fill-rule:nonzero;fill:rgb(100%,100%,100%);fill-opacity:1;stroke-width:2;stroke-linecap:round;stroke-linejoin:round;stroke:rgb(29.803922%,14.117647%,11.372549%);stroke-opacity:1;stroke-miterlimit:4;" d="M 4.354167 34.833333 C 2.192708 41.098958 6.4375 47.958333 13.052083 48.385417 C 13.291667 48.40625 13.536458 48.411458 13.78125 48.411458 C 15.192708 48.416667 16.59375 48.145833 17.90625 47.614583 C 22.583333 45.59375 25.036458 40.411458 23.625 35.510417 L 21.34375 27 L 6.973958 27 Z M 4.354167 34.833333 " transform="matrix(0.75,0,0,0.75,0,0)"/>
<path style="fill-rule:nonzero;fill:rgb(96.078431%,24.313725%,15.686275%);fill-opacity:1;stroke-width:2;stroke-linecap:round;stroke-linejoin:round;stroke:rgb(29.803922%,14.117647%,11.372549%);stroke-opacity:1;stroke-miterlimit:4;" d="M 3.859375 39.40625 C 4.354167 44.229167 8.223958 48.010417 13.057292 48.385417 C 13.296875 48.40625 13.536458 48.411458 13.78125 48.411458 C 15.192708 48.416667 16.59375 48.145833 17.90625 47.614583 C 22.588542 45.59375 25.036458 40.411458 23.625 35.510417 L 23.458333 34.911458 C 20.578125 35.760417 17.833333 36.994792 15.291667 38.588542 C 10.197917 41.546875 6.307292 40.713542 3.859375 39.40625 Z M 3.859375 39.40625 " transform="matrix(0.75,0,0,0.75,0,0)"/>
<path style="fill:none;stroke-width:2;stroke-linecap:round;stroke-linejoin:round;stroke:rgb(29.803922%,14.117647%,11.372549%);stroke-opacity:1;stroke-miterlimit:4;" d="M 42.369792 30.848958 L 49 31 " transform="matrix(0.75,0,0,0.75,0,0)"/>
<path style="fill:none;stroke-width:2;stroke-linecap:round;stroke-linejoin:round;stroke:rgb(29.803922%,14.117647%,11.372549%);stroke-opacity:1;stroke-miterlimit:4;" d="M 35.369792 37.848958 L 42 38 " transform="matrix(0.75,0,0,0.75,0,0)"/>
<path style="fill:none;stroke-width:2;stroke-linecap:round;stroke-linejoin:round;stroke:rgb(29.803922%,14.117647%,11.372549%);stroke-opacity:1;stroke-miterlimit:4;" d="M 28.369792 44.848958 L 34 44.927083 " transform="matrix(0.75,0,0,0.75,0,0)"/>
<path style="fill:none;stroke-width:2;stroke-linecap:round;stroke-linejoin:round;stroke:rgb(29.803922%,14.117647%,11.372549%);stroke-opacity:1;stroke-miterlimit:4;" d="M 23.005208 50.864583 L 29 51 " transform="matrix(0.75,0,0,0.75,0,0)"/>
<path style="fill-rule:nonzero;fill:rgb(85.098039%,74.509804%,43.529412%);fill-opacity:1;stroke-width:2;stroke-linecap:round;stroke-linejoin:round;stroke:rgb(29.803922%,14.117647%,11.372549%);stroke-opacity:1;stroke-miterlimit:4;" d="M 36 48 L 57 48 L 57 59 L 36 59 Z M 36 48 " transform="matrix(0.75,0,0,0.75,0,0)"/>
<path style="fill-rule:nonzero;fill:rgb(100%,80.784314%,33.72549%);fill-opacity:1;stroke-width:2;stroke-linecap:round;stroke-linejoin:round;stroke:rgb(29.803922%,14.117647%,11.372549%);stroke-opacity:1;stroke-miterlimit:4;" d="M 42 42 L 36 48 L 45 48 L 45 53.5 C 45 54.328125 45.671875 55 46.5 55 C 47.328125 55 48 54.328125 48 53.5 L 48 50.5 C 48 51.328125 48.671875 52 49.5 52 C 50.328125 52 51 51.328125 51 50.5 L 51 48 L 57 48 Z M 42 42 " transform="matrix(0.75,0,0,0.75,0,0)"/>
</g>
</svg>
