<svg id="Icons" height="48" viewBox="0 0 60 60" width="48ß" xmlns="http://www.w3.org/2000/svg"><rect fill="#607d8b" height="40" rx="5" width="58" x="1" y="15"/><path d="m54 15h-3a5 5 0 0 1 5 5v30a5 5 0 0 1 -5 5h3a5 5 0 0 0 5-5v-30a5 5 0 0 0 -5-5z" fill="#37474f"/><path d="m8 55h10a0 0 0 0 1 0 0v2a2 2 0 0 1 -2 2h-6a2 2 0 0 1 -2-2v-2a0 0 0 0 1 0 0z" fill="#7f8e94"/><path d="m42 55h10a0 0 0 0 1 0 0v2a2 2 0 0 1 -2 2h-6a2 2 0 0 1 -2-2v-2a0 0 0 0 1 0 0z" fill="#7f8e94"/><path d="m49 55v2a2 2 0 0 1 -2 2h3a2 2 0 0 0 2-2v-2z" fill="#545c60"/><rect fill="#02a9f4" height="32" rx="3" width="32" x="5" y="19"/><path d="m34 19h-3a3 3 0 0 1 3 3v26a3 3 0 0 1 -3 3h3a3 3 0 0 0 3-3v-26a3 3 0 0 0 -3-3z" fill="#0377bc"/><circle cx="45" cy="23" fill="#7f8e94" r="4"/><circle cx="45" cy="35" fill="#7f8e94" r="4"/><path d="m45 31a3.984 3.984 0 0 0 -1.5.3 3.992 3.992 0 0 1 0 7.406 4 4 0 1 0 1.5-7.706z" fill="#545c60"/><path d="m46 23a4 4 0 0 1 -2.5 3.7 4 4 0 1 0 0-7.406 4 4 0 0 1 2.5 3.706z" fill="#545c60"/><path d="m20 15c.946-2.282 5.063-4 10-4s9.054 1.718 10 4" fill="#7f8e94"/><path d="m22.189 12.79-7.671-8.441a2 2 0 0 1 2.961-2.7l8.811 9.691" fill="#607d8b"/><path d="m33.71 11.34 8.811-9.691a2 2 0 0 1 2.961 2.7l-7.671 8.441" fill="#607d8b"/><path d="m54 14h-13.406a5.64 5.64 0 0 0 -1.276-1.382l6.906-7.6a3 3 0 0 0 -4.443-4.042l-8.446 9.29a21.039 21.039 0 0 0 -6.67 0l-8.448-9.292a3 3 0 0 0 -4.439 4.047l6.9 7.6a5.64 5.64 0 0 0 -1.272 1.379h-13.406a6.006 6.006 0 0 0 -6 6v30a6.006 6.006 0 0 0 6 6h1v1a3 3 0 0 0 3 3h6a3 3 0 0 0 3-3v-1h22v1a3 3 0 0 0 3 3h6a3 3 0 0 0 3-3v-1h1a6.006 6.006 0 0 0 6-6v-30a6.006 6.006 0 0 0 -6-6zm-10.741-11.677a1 1 0 1 1 1.482 1.354l-7.152 7.87a13.551 13.551 0 0 0 -2.011-.775zm-28 1.356a1 1 0 1 1 1.478-1.358l7.683 8.451a13.551 13.551 0 0 0 -2.011.775zm14.741 8.321a13.85 13.85 0 0 1 7.85 2h-15.7a13.85 13.85 0 0 1 7.85-2zm-13 45a1 1 0 0 1 -1 1h-6a1 1 0 0 1 -1-1v-1h8zm34 0a1 1 0 0 1 -1 1h-6a1 1 0 0 1 -1-1v-1h8zm7-7a4 4 0 0 1 -4 4h-48a4 4 0 0 1 -4-4v-30a4 4 0 0 1 4-4h48a4 4 0 0 1 4 4z"/><path d="m34 18h-26a4 4 0 0 0 -4 4v26a4 4 0 0 0 4 4h26a4 4 0 0 0 4-4v-26a4 4 0 0 0 -4-4zm2 30a2 2 0 0 1 -2 2h-26a2 2 0 0 1 -2-2v-26a2 2 0 0 1 2-2h26a2 2 0 0 1 2 2z"/><path d="m45 18a5 5 0 1 0 5 5 5.006 5.006 0 0 0 -5-5zm0 8a3 3 0 1 1 3-3 3 3 0 0 1 -3 3z"/><path d="m45 30a5 5 0 1 0 5 5 5.006 5.006 0 0 0 -5-5zm0 8a3 3 0 1 1 3-3 3 3 0 0 1 -3 3z"/><path d="m43 42h-1a1 1 0 0 0 0 2h1a1 1 0 0 0 0-2z"/><path d="m48 42h-1a1 1 0 0 0 0 2h1a1 1 0 0 0 0-2z"/><path d="m43 46h-1a1 1 0 0 0 0 2h1a1 1 0 0 0 0-2z"/><path d="m48 46h-1a1 1 0 0 0 0 2h1a1 1 0 0 0 0-2z"/><path d="m43 50h-1a1 1 0 0 0 0 2h1a1 1 0 0 0 0-2z"/><path d="m48 50h-1a1 1 0 0 0 0 2h1a1 1 0 0 0 0-2z"/><circle cx="54" cy="21" r="1"/><circle cx="54" cy="25" r="1"/><circle cx="54" cy="33" r="1"/><circle cx="54" cy="37" r="1"/><path d="m54 42a1 1 0 0 0 -1 1v8a1 1 0 0 0 2 0v-8a1 1 0 0 0 -1-1z"/></svg>